<svg width="18" height="20" viewBox="0 0 18 20" fill="none" xmlns="http://www.w3.org/2000/svg">
<path d="M8.99998 0C4.58197 0 0.987671 3.59434 0.987671 8.01231V8.23379C0.987671 10.4682 2.26869 13.0719 4.79525 15.9726C6.62681 18.0754 8.43279 19.5416 8.50873 19.603L8.99998 20L9.49123 19.6031C9.5672 19.5417 11.3732 18.0754 13.2047 15.9726C15.7312 13.0719 17.0123 10.4682 17.0123 8.23383V8.01234C17.0123 3.59434 13.418 0 8.99998 0ZM15.4489 8.23383C15.4489 12.0098 10.5836 16.5807 8.99998 17.9683C7.41587 16.5803 2.55103 12.0095 2.55103 8.23383V8.01234C2.55103 4.45641 5.44404 1.5634 8.99998 1.5634C12.5559 1.5634 15.4489 4.45641 15.4489 8.01234V8.23383Z" fill="#E31F1A"/>
</svg>
