<svg width="18" height="16" viewBox="0 0 18 16" fill="none" xmlns="http://www.w3.org/2000/svg">
<path d="M16.5461 1.5568C15.6036 0.614251 14.3557 0.0990945 13.024 0.0990945C11.6922 0.0990945 10.4405 0.618067 9.498 1.56061L9.00574 2.05287L8.50585 1.55298C7.5633 0.610435 6.30784 0.0876465 4.97606 0.0876465C3.6481 0.0876465 2.39646 0.606619 1.45773 1.54535C0.515178 2.4879 -0.00379509 3.73954 2.08952e-05 5.07131C2.08952e-05 6.40309 0.52281 7.65091 1.46536 8.59346L8.63177 15.7599C8.73099 15.8591 8.86455 15.9125 8.99429 15.9125C9.12403 15.9125 9.25759 15.8629 9.35681 15.7637L16.5385 8.60872C17.481 7.66618 18 6.41454 18 5.08276C18.0038 3.75098 17.4887 2.49934 16.5461 1.5568ZM15.8135 7.87987L8.99429 14.6723L2.19039 7.86842C1.44246 7.12049 1.03034 6.12834 1.03034 5.07131C1.03034 4.01429 1.43865 3.02213 2.18658 2.27802C2.9307 1.5339 3.92285 1.12178 4.97606 1.12178C6.03309 1.12178 7.02906 1.5339 7.77699 2.28183L8.63941 3.14424C8.84165 3.34649 9.16601 3.34649 9.36826 3.14424L10.223 2.28946C10.971 1.54153 11.9669 1.12941 13.0202 1.12941C14.0734 1.12941 15.0655 1.54153 15.8135 2.28565C16.5614 3.03358 16.9697 4.02573 16.9697 5.08276C16.9735 6.13979 16.5614 7.13194 15.8135 7.87987Z" fill="#DADADA"/>
</svg>
