<svg width="24" height="24" viewBox="0 0 24 24" fill="none" xmlns="http://www.w3.org/2000/svg">
<path d="M23.7893 22.7761L17.957 16.9437C19.5215 15.145 20.4687 12.7982 20.4687 10.2333C20.4687 4.58714 15.8763 0 10.2355 0C4.58934 0 0.00219727 4.59246 0.00219727 10.2333C0.00219727 15.8741 4.59466 20.4665 10.2355 20.4665C12.8004 20.4665 15.1472 19.5193 16.9459 17.9548L22.7782 23.7871C22.9166 23.9255 23.1029 24 23.2838 24C23.4647 24 23.651 23.9308 23.7893 23.7871C24.0661 23.5104 24.0661 23.0528 23.7893 22.7761ZM1.43368 10.2333C1.43368 5.38004 5.38224 1.43681 10.2301 1.43681C15.0833 1.43681 19.0266 5.38537 19.0266 10.2333C19.0266 15.0812 15.0833 19.035 10.2301 19.035C5.38224 19.035 1.43368 15.0865 1.43368 10.2333Z" fill="#E31F1A"/>
</svg>
