<svg width="20" height="20" viewBox="0 0 20 20" fill="none" xmlns="http://www.w3.org/2000/svg">
<path d="M0.973719 2.61105L3.59379 0L9.03503 5.43222L6.92562 7.61073C7.27913 8.23831 8.04616 9.44045 9.35339 10.7476C10.6608 12.0551 11.8717 12.8308 12.5053 13.19L14.641 11.0814L19.9973 16.4058L17.3915 19.0289C16.3955 20.025 14.8799 20.2831 13.6202 19.6713C11.698 18.7377 8.79691 17.0151 5.89218 14.1104C2.98754 11.2057 1.26493 8.30463 0.331259 6.38237C0.110048 5.9269 0.00258636 5.43804 0.00258636 4.95233C0.00258636 4.09468 0.337782 3.24695 0.973719 2.61105ZM1.73567 5.70018C2.617 7.51475 4.24504 10.2552 6.99621 13.0064C9.74745 15.7577 12.4879 17.3856 14.3024 18.2669C14.9639 18.5882 15.7617 18.4508 16.2858 17.9268L17.7897 16.4127L14.6372 13.2791L12.8177 15.0754L12.3309 14.8586C12.2518 14.8233 10.3691 13.9714 8.24929 11.8517C6.12812 9.73049 5.2939 7.8637 5.25945 7.78522L5.04836 7.30495L6.84375 5.45077L3.5927 2.20507L2.07692 3.71558C1.55173 4.24155 1.4145 5.03901 1.73567 5.70018Z" fill="#E31F1A"/>
</svg>
